<?xml version="1.0" encoding="UTF-8"?>
<svg id="a" data-name="Capa 1" xmlns="http://www.w3.org/2000/svg" viewBox="0 0 566.93 566.93">
  <defs>
    <style>
      .b {
        fill: #fff;
      }

      .c {
        fill: #006eba;
      }

      .d {
        fill: #16a1dc;
      }
    </style>
  </defs>
  <path class="c" d="M459.7,130.33c-.78-.02-1.56,0-2.33,0h-173.81c-58.07,0-116.13,0-174.2,0-1.17,0-2.33,.02-3.5,.01-1.17-.01-1.61,.61-1.53,1.7,.05,.77,.11,1.55,.17,2.32,.82,9.79,1.63,19.59,2.48,29.38,.89,10.31,1.84,20.61,2.74,30.92,1.15,13.27,2.25,26.55,3.4,39.82,.91,10.57,1.86,21.13,2.77,31.7,1.15,13.27,2.28,26.54,3.43,39.81,.91,10.57,1.84,21.13,2.75,31.7,1.17,13.53,2.35,27.05,3.51,40.58,1.14,13.27,2.25,26.55,3.39,39.83,1.2,13.91,2.45,27.83,3.66,41.74,.9,10.31,1.86,20.61,2.64,30.93,.21,2.83,1.28,4.04,4.16,4.83,46.27,12.8,92.51,25.74,138.73,38.75,3.62,1.02,6.86,1.1,10.53,.05,26.39-7.52,52.84-14.81,79.26-22.19,20.07-5.6,40.13-11.23,60.19-16.86,3.05-.85,3.08-.87,3.38-4.07,.86-9.53,1.69-19.07,2.53-28.6,1.15-13.14,2.31-26.28,3.44-39.42,.87-10.05,1.69-20.11,2.56-30.16,1.23-14.17,2.49-28.34,3.72-42.51,.86-9.92,1.68-19.85,2.54-29.77,1.2-13.78,2.42-27.56,3.61-41.35,1.15-13.27,2.26-26.55,3.41-39.83,1.2-13.79,2.43-27.57,3.63-41.35,.88-10.18,1.71-20.36,2.59-30.54,.98-11.47,2.02-22.93,2.97-34.4,.25-2.95,.15-2.96-2.82-3.02Zm-32.9,35.68c-.49,3.31-.45,6.68-.71,10.01-.33,4.36-.84,8.72-1.15,13.09-.31,4.21-.4,8.47-1.2,12.67-.6,3.14-.64,6.42-.8,9.61-.22,4.25-.72,8.5-1.14,12.7-.41,4.08-.31,8.22-1.21,12.28-.68,3.11-.5,6.41-.72,9.61-.3,4.37-.84,8.73-1.14,13.09-.29,4.21-.5,8.46-1.19,12.67-.59,3.66-.49,7.43-.93,11.16-.95,8.04-1.51,16.13-2.21,24.2-.36,4.22-.81,8.46-1.08,12.7-.28,4.34-.57,8.71-1.19,13.05-.54,3.81-.44,7.7-1,11.54-.74,5.09-.9,10.25-1.37,15.37-.36,3.84-.73,7.69-1.07,11.54-.42,4.86-.66,9.74-1.27,14.6-.45,3.56-.78,7.18-.91,10.77-.16,4.39-.69,8.76-1.11,13.09-.35,3.68-.26,7.44-1.16,11.13-.69,2.83-.41,5.88-.68,8.83-.35,3.84-.76,7.69-1.09,11.53-.43,4.86-.83,9.74-1.23,14.6-.37,4.49-1.15,8.95-1.07,13.49,.06,3.2-.1,3.36-2.88,4.11-12.82,3.45-25.65,6.83-38.46,10.3-13.69,3.7-27.35,7.49-41.03,11.2-10.45,2.83-20.91,5.61-31.38,8.36-2.74,.72-2.87,.63-2.87-2.17,0-14.63,.04-29.25,.07-43.88-24.06-6.69-48.11-13.39-72.17-20.08-5.98-1.66-11.97-3.33-17.97-4.91-1.85-.49-2.68-1.33-2.84-3.39-.79-10.32-1.8-20.61-2.7-30.92-.96-10.95-1.83-21.91-2.88-32.85-.18-1.86,.09-2.54,2.09-2.53,14,.06,28,.07,41.99,0,2.02-.01,2.27,.89,2.38,2.56,.66,10.07,1.48,20.13,2.1,30.2,.12,1.95,.67,3,2.64,3.53,15.23,4.15,30.45,8.37,45.67,12.56,.48,.13,1.02,.05,1.53,.07,0,0,0,0,0,0,.02-22.34,.03-44.69,.08-67.03,0-1.34-.06-2.57-1.28-3.41h0c-1.55-.04-3.1-.13-4.66-.13-30.18,0-60.37,0-90.55,0-4.19,0-4.16-.01-4.51-4.16-1.1-13.14-2.23-26.27-3.32-39.41-.29-3.54-.25-3.56,3.06-5.21,26.16-13.05,52.32-26.1,78.47-39.16,1.13-.56,2.24-1.17,3.89-2.03-1.79-.66-3.16-.43-4.47-.43-26.56-.02-53.11-.01-79.67-.01-.91,0-1.81,.02-2.72,0-2.61-.08-2.79-.21-3.02-2.88-.84-9.53-1.64-19.06-2.44-28.6-.33-3.87-.57-7.74-.94-11.6-.16-1.68,.41-2.42,2.13-2.31,1.03,.07,2.07,0,3.11,0,34.07,0,68.14,0,102.21,0,1.55,0,3.1-.12,4.65-.18,0,0,0,0,0,0,.02-12.69,.03-25.37,.05-38.06,0-.91,.03-1.81,.01-2.72-.03-1.48,.72-2.1,2.15-2.07,.91,.02,1.81,0,2.72,0,44.72,0,89.44,0,134.16,0,.26,0,.52,0,.78,0,4.11,.03,4.05,.02,3.47,3.95Z"/>
  <path d="M290.12,81.08c-.77,.07-1.55,.01-2.33,.01-11.66,0-23.33-.01-34.99,0-2.74,0-2.77,.05-2.79,2.71-.03,4.01-.03,8.02,0,12.04,.02,2.79,.04,2.85,2.64,2.85,9.59,.03,19.18,.01,28.77,.01,9.33,0,18.66,0,27.99,0,4.04,0,3.66,.21,3.66-3.45,0-11.52,0-23.04,0-34.56,0-3.59,.2-3.39-3.35-3.38-12.96,0-25.92,0-38.88,0-3.18,0-3.06,.23-3.1-2.79-.05-5.04-.08-5.04,5.14-5.04,12.44,0,24.88,0,37.32,0,2.79,0,2.82-.05,2.84-2.65,.03-4.01,.03-8.02,0-12.04-.02-2.96-.05-3.01-2.94-3.01-19.05-.02-38.1-.01-57.15,0-2.91,0-2.95,.05-2.96,2.98-.02,11.78-.02,23.55,0,35.33,0,2.92,.04,2.97,2.92,2.97,12.7,.02,25.4,0,38.1,.01,.91,0,1.81,0,2.72,.02,.68,0,1.38,.15,1.42,.95,.1,2.19,.74,4.66-.28,6.48-.76,1.36-3.12,.41-4.76,.55Z"/>
  <path d="M363.64,81.08c-12.7,.03-25.4,.05-38.1-.03-2-.01-2.71,.51-2.63,2.58,.15,4.14,.02,8.28,.05,12.42,.02,2.6,.06,2.64,2.88,2.65,19.05,.01,38.1,.02,57.16,0,3,0,3.05-.05,3.05-2.93,.02-11.78,.02-23.56,0-35.34,0-3.07-.04-3.1-3.24-3.11-12.7-.01-25.4,0-38.1,0-4.7,0-4.05,.42-4.1-4.18,0-.26,0-.52,0-.78,.06-2.83,.06-2.86,3.08-2.87,6.61-.02,13.22,0,19.83,0,6.61,0,13.22,.02,19.83-.01,2.65-.01,2.68-.06,2.7-2.82,.03-3.88,.02-7.77,0-11.65-.02-3.19-.04-3.22-3.14-3.23-9.46-.02-18.92,0-28.38,0-9.46,0-18.92,0-28.38,0-3.15,0-3.19,.03-3.19,3.18-.02,11.65-.02,23.3,0,34.95,0,3.13,.04,3.16,3.15,3.16,12.83,.01,25.66,.02,38.49,0,4.24,0,3.66,.16,3.64,3.52-.03,5.15,.57,4.48-4.6,4.49Z"/>
  <path d="M179.56,98.75c4.92-.12,9.85-.04,14.78-.04,14.39,0,28.78-.03,43.17,.04,1.97,0,2.72-.47,2.64-2.57-.16-4.14-.12-8.29-.02-12.43,.05-1.86-.28-3.01-2.49-2.68-.89,.13-1.81,.02-2.72,.02-12.45,0-24.89,.01-37.34-.01-2.73,0-2.78-.06-2.79-2.76-.03-8.67-.02-17.35,0-26.02,0-2.74,.05-2.78,2.7-2.79,6.74-.03,13.48,0,20.22,0s13.48-.05,20.22,.03c1.69,.02,2.23-.49,2.19-2.19-.1-4.27,0-8.54-.04-12.82-.02-2.68-.07-2.73-2.82-2.74-19.06-.02-38.11-.02-57.17,0-3.04,0-3.06,.05-3.07,3.29-.01,10.1,0,20.2,0,30.29,0,10.23,.05,20.46-.04,30.68-.02,2,.52,2.74,2.59,2.69Z"/>
  <path class="b" d="M372.61,432.5c2.39-.65,3.69-1.53,3.85-4.31,.42-7.23,1.22-14.43,1.86-21.65,1.28-14.55,2.56-29.11,3.82-43.66,.82-9.41,1.6-18.81,2.42-28.22,.99-11.33,1.97-22.67,3.02-34,.46-4.91,.53-4.91-4.39-4.91-25.41,0-50.81,0-76.22,0h-4.56c1.09-1.53,2.39-1.82,3.47-2.37,27.55-13.78,55.1-27.56,82.71-41.23,2.39-1.18,3.49-2.68,3.69-5.24,1.01-12.37,2.15-24.74,3.13-37.11,.4-5.07,.76-4.69-4.26-4.69-34.35,0-68.7,0-103.05-.01-1.55,0-3.1-.13-4.65-.21h0s0,0,0,0c-1.55,.06-3.1,.18-4.65,.18-34.07,.01-68.14,0-102.21,0-1.04,0-2.08,.06-3.11,0-1.72-.12-2.29,.62-2.13,2.31,.37,3.86,.62,7.73,.94,11.6,.8,9.53,1.61,19.07,2.44,28.6,.24,2.67,.42,2.8,3.02,2.88,.91,.03,1.81,0,2.72,0,26.56,0,53.11,0,79.67,.01,1.31,0,2.68-.23,4.47,.43-1.65,.86-2.76,1.47-3.89,2.03-26.16,13.06-52.32,26.1-78.47,39.16-3.31,1.65-3.35,1.67-3.06,5.21,1.09,13.14,2.22,26.27,3.32,39.41,.35,4.15,.32,4.16,4.51,4.16,30.18,0,60.37,0,90.55,0,1.55,0,3.1,.08,4.66,.13h0c11.25-.04,22.5-.1,33.76-.13,6.08-.02,12.17-.03,18.25,0,2.86,.02,2.9,.08,2.7,3.18-.47,7.22-.99,14.43-1.51,21.64-.69,9.66-1.4,19.32-2.07,28.99-.23,3.39-.17,3.44-3.17,4.27-14.82,4.11-29.64,8.21-44.46,12.28-.73,.2-1.52,.14-2.29,.2h0s0,0,0,0c-.51-.02-1.05,.06-1.53-.07-15.22-4.18-30.44-8.41-45.67-12.56-1.97-.53-2.52-1.58-2.64-3.53-.62-10.07-1.44-20.13-2.1-30.2-.11-1.67-.36-2.57-2.38-2.56-14,.08-28,.07-41.99,0-2.01,0-2.27,.67-2.09,2.53,1.04,10.94,1.92,21.9,2.88,32.85,.9,10.31,1.91,20.61,2.7,30.92,.16,2.06,.99,2.9,2.84,3.39,6.01,1.58,11.99,3.25,17.97,4.91,24.06,6.69,48.11,13.39,72.17,20.08,8.97-2.95,18.15-5.18,27.25-7.71,20.57-5.74,41.16-11.41,61.76-17.02Z"/>
  <path class="d" d="M423.33,162.05c-.26,0-.52,0-.78,0-44.72,0-89.44,0-134.16,0-.91,0-1.82,.03-2.72,0-1.43-.03-2.18,.59-2.15,2.07,.02,.91,0,1.81-.01,2.72-.02,12.69-.03,25.37-.05,38.06,1.34-1.34,3.08-1.21,4.75-1.21,34.08-.02,68.15-.03,102.23,0,5.53,0,6.6,1.09,6.13,6.77-.78,9.53-1.7,19.06-2.63,28.58-.08,.77-.37,1.55-.28,2.31,1,7.76-3.24,11.43-9.8,14.6-25.88,12.53-51.51,25.58-77.68,38.61,1.14,.06,1.93,0,2.71,0,24.36,0,48.72-.01,73.08,0,6.6,0,7.18,.94,6.53,7.61-1.32,13.64-2.39,27.3-3.53,40.95-1.1,13.14-2.35,26.26-3.46,39.4-1.17,13.78-2.48,27.55-3.49,41.34-.56,7.62-.99,8.52-8.21,10.52-26.96,7.49-53.94,14.91-80.93,22.32-1.71,.47-3.44,1.3-5.29,.52-.03,14.63-.08,29.25-.07,43.88,0,2.8,.13,2.89,2.87,2.17,10.47-2.75,20.93-5.53,31.38-8.36,13.69-3.71,27.35-7.49,41.03-11.2,12.81-3.46,25.65-6.85,38.46-10.3,2.79-.75,2.94-.91,2.88-4.11-.08-4.53,.7-9,1.07-13.49,.4-4.86,.8-9.74,1.23-14.6,.34-3.84,.74-7.7,1.09-11.53,.27-2.95-.01-6,.68-8.83,.9-3.69,.81-7.45,1.16-11.13,.41-4.34,.95-8.7,1.11-13.09,.13-3.59,.46-7.21,.91-10.77,.61-4.86,.85-9.74,1.27-14.6,.33-3.84,.71-7.7,1.07-11.54,.48-5.12,.64-10.28,1.37-15.37,.55-3.84,.45-7.73,1-11.54,.62-4.34,.91-8.71,1.19-13.05,.28-4.24,.72-8.48,1.08-12.7,.7-8.07,1.26-16.16,2.21-24.2,.44-3.72,.34-7.49,.93-11.16,.68-4.21,.89-8.46,1.19-12.67,.3-4.37,.84-8.73,1.14-13.09,.22-3.2,.04-6.5,.72-9.61,.89-4.07,.8-8.21,1.21-12.28,.42-4.2,.92-8.45,1.14-12.7,.17-3.18,.2-6.47,.8-9.61,.8-4.2,.89-8.46,1.2-12.67,.32-4.36,.82-8.73,1.15-13.09,.25-3.33,.22-6.7,.71-10.01,.58-3.94,.65-3.93-3.47-3.95Z"/>
  <path class="d" d="M288.9,456.71c26.98-7.41,53.96-14.83,80.93-22.32,7.22-2.01,7.66-2.91,8.21-10.52,1.01-13.79,2.32-27.56,3.49-41.34,1.11-13.14,2.36-26.26,3.46-39.4,1.14-13.65,2.21-27.31,3.53-40.95,.64-6.67,.07-7.6-6.53-7.61-24.36-.02-48.72-.01-73.08,0-.78,0-1.58,.06-2.71,0,26.17-13.04,51.8-26.09,77.68-38.61,6.56-3.18,10.81-6.85,9.8-14.6-.1-.75,.2-1.54,.28-2.31,.93-9.52,1.86-19.04,2.63-28.58,.46-5.68-.61-6.76-6.13-6.77-34.08-.04-68.15-.03-102.23,0-1.67,0-3.41-.12-4.75,1.21h0c1.55,.07,3.1,.21,4.65,.21,34.35,.01,68.7,0,103.05,.01,5.02,0,4.66-.38,4.26,4.69-.98,12.37-2.12,24.74-3.13,37.11-.21,2.56-1.3,4.05-3.69,5.24-27.61,13.67-55.16,27.45-82.71,41.23-1.08,.54-2.38,.84-3.47,2.37h4.56c25.41,0,50.81,0,76.22,0,4.92,0,4.84,0,4.39,4.91-1.05,11.33-2.03,22.66-3.02,34-.82,9.41-1.6,18.81-2.42,28.22-1.27,14.55-2.54,29.11-3.82,43.66-.64,7.22-1.44,14.42-1.86,21.65-.16,2.78-1.46,3.66-3.85,4.31-20.6,5.61-41.19,11.28-61.76,17.02-9.09,2.54-18.27,4.76-27.25,7.71,1.86,.78,3.59-.05,5.29-.52Z"/>
  <path class="d" d="M326.99,398.68c3.44-.9,5.05-2.37,5.34-6.28,1.15-15.59,1.98-31.21,3.44-46.78,.34-3.65-1.74-3.7-4.25-3.7-14,0-27.99-.01-41.99,.02-2.48,0-4.91-.13-7.28-.91h0c1.22,.84,1.29,2.07,1.28,3.41-.04,22.34-.06,44.69-.08,67.03,3.75-2.54,8.23-3.05,12.43-4.22,10.35-2.9,20.7-5.85,31.1-8.56Z"/>
  <path class="d" d="M285.74,411.25c14.83-4.07,29.65-8.17,44.46-12.28,2.99-.83,2.93-.88,3.17-4.27,.67-9.66,1.38-19.32,2.07-28.99,.51-7.21,1.03-14.43,1.51-21.64,.2-3.1,.16-3.16-2.7-3.18-6.08-.04-12.17-.03-18.25,0-11.25,.03-22.5,.08-33.76,.13,2.36,.79,4.8,.92,7.28,.91,14-.03,27.99-.02,41.99-.02,2.52,0,4.6,.05,4.25,3.7-1.46,15.57-2.29,31.19-3.44,46.78-.29,3.91-1.89,5.39-5.34,6.28-10.41,2.71-20.75,5.66-31.1,8.56-4.2,1.18-8.68,1.68-12.43,4.22h0c.76-.06,1.56,0,2.29-.2Z"/>
</svg>