<?xml version="1.0" encoding="UTF-8"?>
<svg id="a" data-name="Capa 1" xmlns="http://www.w3.org/2000/svg" viewBox="0 0 566.93 566.93">
  <defs>
    <style>
      .b {
        fill: #fff;
      }

      .c {
        fill: #e54d26;
      }

      .d {
        fill: #f66b3a;
      }
    </style>
  </defs>
  <path class="c" d="M105.25,152.38c1.16,13.6,2.25,27.2,3.43,40.8,1.71,19.55,3.51,39.1,5.2,58.66,1.98,22.93,3.84,45.86,5.82,68.79,1.66,19.17,3.44,38.32,5.12,57.49,1.84,20.98,3.67,41.96,5.45,62.95,1.42,16.71,2.78,33.43,4.17,50.15q.35,4.25,4.5,5.41c46.76,13.06,93.53,26.09,140.27,39.22,2.84,.8,5.38,.96,8.27,.15,37.74-10.62,75.51-21.13,113.27-31.67,9.5-2.65,19-5.34,28.53-7.92,2.17-.59,3.05-1.54,3.21-3.95,.5-7.91,1.4-15.8,2.07-23.7,1.41-16.58,2.75-33.16,4.18-49.74,1.71-19.82,3.51-39.62,5.24-59.44,1.14-13.08,2.18-26.18,3.32-39.26,1.18-13.59,2.47-27.18,3.64-40.77,1.43-16.58,2.74-33.17,4.18-49.75,1.72-19.82,3.52-39.63,5.27-59.44,1-11.27,1.99-22.53,2.95-33.8,.19-2.27,.24-4.56,.36-6.89H103.21c.7,7.73,1.4,15.23,2.04,22.73Zm70.23,52.18c34.51,0,69.03,0,103.54-.01,1.56,0,3.12-.1,4.68-.15h0c0-13.01,0-26.02,.01-39.04,0-3.83,.04-3.87,3.9-3.87,45.6,0,91.21,0,136.81,0,.78,0,1.57-.01,2.34,.04,1.15,.07,1.54,.72,1.4,1.84-.69,5.39-.86,10.83-1.48,16.2-.8,6.93-1.2,13.89-2.01,20.82-.48,4.07-.53,8.28-1.09,12.36-.63,4.62-.37,9.29-1.28,13.89-.62,3.14-.65,6.46-.78,9.65-.18,4.54-.68,9.07-1.17,13.54-.43,3.96-.21,7.99-1.16,11.95-.78,3.23-.57,6.7-.79,10.03-.48,7.23-1.23,14.44-1.9,21.64-.67,7.19-1.18,14.41-1.98,21.6-.46,4.08-.83,8.23-1.07,12.37-.27,4.63-.59,9.27-1.31,13.88-.46,2.92-.74,5.95-.8,8.87-.09,4.68-.7,9.32-1.13,13.93-.39,4.09-.26,8.25-1.17,12.34-.7,3.12-.67,6.45-.82,9.64-.35,7.51-1.24,14.96-1.89,22.42-.61,6.93-1.22,13.89-1.98,20.82-.48,4.34-.64,8.79-1.13,13.14-.51,4.49-.65,9.01-1.14,13.5-.47,4.35-1.11,8.73-1.09,13.15,.02,4.09-.51,4.61-4.35,5.65-17.63,4.79-35.24,9.65-52.87,14.42-14.13,3.82-28.29,7.55-42.43,11.33-4.88,1.31-9.76,2.65-14.63,3.99-2.71,.75-2.96,.65-2.98-2.07-.05-7.03-.02-14.05-.02-21.08,0-6.51,0-13.01,0-19.52,0-1.43,.14-2.88-.77-4.13h0c-29.51-8.16-59.03-16.31-88.55-24.46-3.86-1.07-3.96-1.04-4.33-5.09-.88-9.71-1.65-19.42-2.49-29.13-.95-11-1.9-22-2.89-32.99-.27-2.95-.33-3,2.73-3.01,13.68-.02,27.35-.02,41.03,0,2.68,0,2.68,.06,2.88,2.77,.74,10.11,1.49,20.22,2.19,30.34,.1,1.53,.26,2.55,2.13,3.06,15.78,4.26,31.53,8.65,47.29,12.99,.23,.06,.51-.04,.77-.07,0-23.61,0-47.22,0-70.82-1.56-.04-3.12-.13-4.68-.13-30.48,0-60.95,0-91.43,0-.91,0-1.83-.09-2.73,.02-1.88,.21-2.5-.68-2.63-2.44-.49-6.48-1.09-12.94-1.64-19.42-.88-10.48-1.73-20.97-2.64-31.45-.98-11.39-2.01-22.78-3.01-34.17-1.3-14.75-2.67-29.5-3.83-44.27-.41-5.18-1.41-4.84,4.38-4.84Z"/>
  <path d="M289.98,97.85c5.47-.08,10.95,0,16.42-.04,2.91-.02,2.94-.07,2.95-3.07,.02-8.46,0-16.92,0-25.38v-3.71c.25-.05,.49-.11,.74-.16,4.94,7.97,9.88,15.94,15.09,24.35,5.22-8.42,10.15-16.38,15.08-24.34,.75,3.1,.75,6.03,.75,8.95,0,6.9,0,13.8,0,20.7,0,1.31-.2,2.69,1.82,2.68,6.13-.03,12.25-.03,18.38,0,1.17,0,1.63-.46,1.61-1.61-.04-2.21-.01-4.43,0-6.64,0-18.61,0-37.23,0-55.84,0-3.2,.21-3.27-3.15-3.25-4.82,.04-9.66,.24-14.46-.07-3.2-.2-4.88,1.01-6.43,3.67-4.25,7.28-8.79,14.38-13.54,22.07-.94-1.45-1.51-2.3-2.05-3.17-4.17-6.75-8.34-13.5-12.5-20.26-.76-1.24-1.4-2.32-3.23-2.28-5.99,.12-11.99,.07-17.99,.03-1.27,0-1.99,.34-1.92,1.74,.05,.91,0,1.82,0,2.73,0,17.31,0,34.62,0,51.94,0,2.86,.14,5.74-.05,8.59-.14,2.04,.71,2.39,2.48,2.36Z"/>
  <path d="M139.59,97.86c5.6-.1,11.21-.12,16.81,0,2,.05,2.36-.74,2.33-2.51-.09-5.59,.04-11.19-.07-16.79-.04-1.89,.57-2.49,2.44-2.46,6.12,.09,12.25,.02,18.37,.04,3.05,.01,3.07,.05,3.08,3.33,.02,5.08-.01,10.15,0,15.23,.01,3.08,.04,3.1,3.26,3.12,5.08,.02,10.17,.02,15.25,0,3.17-.02,3.21-.04,3.21-3.18,.02-10.15,0-20.3,0-30.45,0-10.28,.02-20.56-.01-30.85,0-2.75-.07-2.8-2.82-2.82-5.34-.03-10.69-.03-16.03,0-2.78,.02-2.84,.06-2.85,2.77-.04,5.47,0,10.93-.02,16.4-.03,5.35,.54,4.63-4.48,4.67-5.08,.03-10.17,.02-15.25,0-4.62-.01-4.11,.44-4.13-4.23-.02-5.73-.06-11.45,.03-17.18,.03-1.81-.45-2.53-2.41-2.48-5.73,.12-11.47,.09-17.2,.01-1.72-.02-2.38,.62-2.23,2.28,.07,.77,.01,1.56,.01,2.34,0,16.53,0,33.06,0,49.59,0,3.51,.12,7.03-.05,10.54-.1,2.16,.75,2.67,2.73,2.63Z"/>
  <path d="M217.6,52.28c4.3,0,8.59-.01,12.89,0,3.49,.01,3.49,.02,3.52,3.66,0,1.3,0,2.6,0,3.9,0,11.7-.02,23.41,0,35.11,0,2.78,.07,2.83,2.79,2.85,4.95,.04,9.9,.03,14.85,0,4.69-.03,4.09,.55,4.1-4.19,.03-12.48,0-24.97,0-37.45,0-4.42-.29-3.87,4.06-3.89,4.95-.02,9.9-.01,14.85,0,3.05,0,2.9,.19,2.89-3.01-.02-5.33,.02-10.66-.01-16-.02-2.7-.06-2.75-2.82-2.76-9.64-.02-19.27,0-28.91,0-1.3,0-2.6,0-3.91,0-8.07,0-16.15,0-24.22,0-3.88,0-3.53-.11-3.53,3.66,0,4.94,0,9.88,0,14.83,0,3.39-.38,3.3,3.44,3.29Z"/>
  <path d="M423.96,97.85c1.65,0,2.26-.48,2.24-2.19-.09-5.59-.01-11.18-.04-16.77-.01-2.69-.05-2.73-2.76-2.74-8.46-.02-16.92,0-25.38-.01-3.38,0-3.41-.03-3.41-3.36-.01-12.61,0-25.22,0-37.83,0-.91-.03-1.82,0-2.73,.03-1.1-.41-1.7-1.58-1.7-6.25,0-12.5,0-18.74,0-.95,0-1.45,.42-1.47,1.36-.02,.91-.01,1.82-.01,2.73,0,19.76,0,39.52,0,59.27v3.94c17.35,0,34.27-.02,51.18,.03Z"/>
  <path class="b" d="M174.93,253.67c1,11.39,2.03,22.78,3.01,34.17,.9,10.48,1.75,20.97,2.64,31.45,.54,6.47,1.15,12.94,1.64,19.42,.13,1.76,.75,2.65,2.63,2.44,.9-.1,1.82-.02,2.73-.02,30.48,0,60.95,0,91.43,0,1.56,0,3.12,.08,4.68,.13,14.71-.04,29.43-.09,44.14-.13,2.34,0,4.69-.04,7.03,0,2.55,.05,2.71,.23,2.55,2.63-.18,2.59-.41,5.18-.59,7.77-1.04,14.78-2.12,29.56-3.07,44.34-.13,2-.73,2.9-2.74,3.45-15.53,4.19-31.03,8.52-46.54,12.79-.24,.07-.52-.02-.77-.03h0c-.26,.03-.54,.14-.77,.07-15.76-4.34-31.5-8.73-47.29-12.99-1.87-.5-2.02-1.53-2.13-3.06-.69-10.11-1.45-20.23-2.19-30.34-.2-2.71-.2-2.77-2.88-2.77-13.68-.02-27.35-.02-41.03,0-3.06,0-3,.05-2.73,3.01,.99,11,1.94,21.99,2.89,32.99,.84,9.71,1.61,19.43,2.49,29.13,.37,4.05,.46,4.03,4.33,5.09,29.52,8.15,59.03,16.31,88.55,24.46,4.93-.62,9.58-2.35,14.33-3.64,25.05-6.84,50.07-13.82,75.1-20.75,.75-.21,1.48-.57,2.24-.65,1.62-.17,2.1-1.05,2.22-2.58,.41-5.19,.97-10.36,1.43-15.54,1.56-17.61,3.11-35.21,4.64-52.82,.88-10.23,1.68-20.48,2.57-30.71,.91-10.49,1.89-20.97,2.83-31.45,.07-.78,.09-1.56,.12-2.34,.03-.97-.49-1.41-1.42-1.42-1.17-.01-2.35-.02-3.52-.02-50.83,.02-101.66,.04-152.49,.01-1.43,0-3.09,.72-4.31-.73,0,0,0,0,0,0h0c-1.08-5.75-.93-11.61-1.46-17.41-.72-7.86-1.13-15.75-1.67-23.63-.08-1.15-.31-2.32,.12-3.46,1.19-1.23,2.71-.58,4.05-.58,53.16-.02,106.33,.01,159.49,.03,5.55,0,5.45,0,5.92-5.76,.92-11.27,2.04-22.52,2.92-33.79,.57-7.35,1.01-5.88-5.25-5.89-34.27-.06-68.54-.02-102.81-.03-1.43,0-2.86-.09-4.29-.13-1.56,.05-3.12,.15-4.68,.15-34.51,0-69.03,0-103.54,.01-5.79,0-4.79-.34-4.38,4.84,1.16,14.76,2.54,29.51,3.83,44.27Z"/>
  <path class="d" d="M288.9,203.22c33.98-.02,67.96-.04,101.93,0,5.97,0,7.07,1.33,6.5,7.26-1.05,11.12-2.19,22.24-2.97,33.39-.42,6.03-1.67,7.12-8.18,7.13-34.35,.08-68.71,0-103.06-.07,.54,.35,.56,1.11,.57,2.83,.03,12.61,.03,25.22,0,37.83,0,1.85-.03,2.7-.6,3.1,32.62-.04,65.25-.1,97.87-.05,8.62,.01,8.69,.02,8,8.7-1.63,20.48-3.49,40.94-5.28,61.4-1.73,19.82-3.56,39.63-5,59.47-.05,.65-.1,1.3-.18,1.94-.87,6.91-.87,6.96-7.7,8.85-27.25,7.54-54.52,15.01-81.77,22.55-2.01,.56-4.03,1.19-6.08,.14h0c.91,1.26,.77,2.7,.77,4.13,0,6.51,0,13.01,0,19.52,0,7.03-.03,14.05,.02,21.08,.02,2.72,.27,2.81,2.98,2.07,4.87-1.34,9.75-2.69,14.63-3.99,14.14-3.78,28.3-7.51,42.43-11.33,17.63-4.77,35.25-9.63,52.87-14.42,3.84-1.04,4.37-1.56,4.35-5.65-.02-4.42,.62-8.8,1.09-13.15,.49-4.49,.63-9.01,1.14-13.5,.49-4.35,.65-8.8,1.13-13.14,.76-6.93,1.37-13.89,1.98-20.82,.66-7.46,1.55-14.92,1.89-22.42,.15-3.19,.12-6.52,.82-9.64,.92-4.09,.79-8.25,1.17-12.34,.44-4.61,1.04-9.25,1.13-13.93,.06-2.92,.34-5.94,.8-8.87,.72-4.61,1.04-9.25,1.31-13.88,.24-4.14,.61-8.29,1.07-12.37,.8-7.19,1.31-14.41,1.98-21.6,.67-7.2,1.43-14.41,1.9-21.64,.22-3.34,0-6.8,.79-10.03,.95-3.96,.73-7.99,1.16-11.95,.49-4.46,.99-9,1.17-13.54,.13-3.19,.16-6.5,.78-9.65,.91-4.61,.65-9.27,1.28-13.89,.56-4.08,.61-8.29,1.09-12.36,.81-6.93,1.21-13.89,2.01-20.82,.62-5.37,.8-10.82,1.48-16.2,.14-1.12-.25-1.76-1.4-1.84-.78-.05-1.56-.04-2.34-.04-45.6,0-91.21,0-136.81,0-3.87,0-3.9,.03-3.9,3.87-.02,13.01,0,26.02-.01,39.04h0c1.53-1.3,3.4-1.18,5.21-1.18Z"/>
  <path class="d" d="M289.01,457.56c27.25-7.54,54.52-15.01,81.77-22.55,6.84-1.89,6.83-1.94,7.7-8.85,.08-.65,.14-1.29,.18-1.94,1.44-19.84,3.27-39.65,5-59.47,1.79-20.46,3.65-40.92,5.28-61.4,.69-8.68,.63-8.69-8-8.7-32.62-.04-65.25,.01-97.87,.05-.48,.33-1.34,.35-2.92,.35-17.84,.02-35.67,.01-53.51,.01,0,0,0,0,0,0,1.22,1.45,2.88,.73,4.31,.73,50.83,.03,101.66,0,152.49-.01,1.17,0,2.35,0,3.52,.02,.93,.01,1.46,.45,1.42,1.42-.03,.78-.05,1.56-.12,2.34-.94,10.48-1.92,20.96-2.83,31.45-.89,10.23-1.68,20.48-2.57,30.71-1.52,17.61-3.08,35.22-4.64,52.82-.46,5.18-1.02,10.36-1.43,15.54-.12,1.53-.61,2.41-2.22,2.58-.76,.08-1.49,.44-2.24,.65-25.03,6.93-50.04,13.91-75.1,20.75-4.75,1.3-9.41,3.02-14.33,3.64h0c2.05,1.05,4.07,.42,6.08-.14Z"/>
  <path class="d" d="M390.8,204.57c6.26,.01,5.83-1.46,5.25,5.89-.88,11.27-2,22.53-2.92,33.79-.47,5.75-.37,5.76-5.92,5.76-53.16-.02-106.33-.05-159.49-.03-1.34,0-2.86-.65-4.05,.58,18.1,.01,36.19,.02,54.29,.03,.91,0,1.82-.02,2.73,0,1.28,.04,2.02,.07,2.44,.34,34.35,.06,68.71,.15,103.06,.07,6.51-.02,7.76-1.11,8.18-7.13,.78-11.15,1.92-22.27,2.97-33.39,.56-5.93-.53-7.25-6.5-7.26-33.98-.04-67.96-.03-101.93,0-1.81,0-3.68-.12-5.21,1.18h0c1.43,.05,2.86,.13,4.29,.13,34.27,0,68.54-.02,102.81,.03Z"/>
  <path class="d" d="M287.79,409.99c12.84-3.43,25.6-7.13,38.43-10.58,6.01-1.61,5.94-1.64,6.45-7.81,1.23-15.02,2.26-30.06,3.22-45.1,.25-3.94,.13-4.18-3.95-4.19-14.2-.05-28.4,0-42.61-.03-1.93,0-3.94,.28-5.65-1.01,0,23.61,0,47.22,0,70.82h0c1.1-1.22,2.57-1.69,4.1-2.1Z"/>
  <path class="d" d="M284.46,412.12c15.51-4.27,31.01-8.6,46.54-12.79,2.01-.54,2.61-1.45,2.74-3.45,.95-14.78,2.03-29.56,3.07-44.34,.18-2.59,.42-5.18,.59-7.77,.16-2.4,0-2.58-2.55-2.63-2.34-.05-4.69-.01-7.03,0-14.71,.04-29.43,.09-44.14,.13,1.71,1.3,3.72,1.01,5.65,1.01,14.2,.03,28.4-.02,42.61,.03,4.07,.01,4.2,.26,3.95,4.19-.96,15.04-1.99,30.08-3.22,45.1-.51,6.17-.43,6.19-6.45,7.81-12.83,3.44-25.59,7.15-38.43,10.58-1.53,.41-3,.88-4.1,2.1h0c.26,.01,.54,.09,.77,.03Z"/>
  <path class="c" d="M232.63,293.83c14.72-.03,29.44,0,44.16-.02,5.51,0,5.65-.15,5.66-5.72,.02-10.41,.03-20.82,0-31.22-.02-4.73-.33-5.05-5.15-5.06-15.89-.04-31.79,0-47.68-.04-1.29,0-2.63,.15-3.88-.13-.07,.05-.14,.1-.2,.16-.93,1.1-.93,2.43-.83,3.71,.96,11.52,1.83,23.04,2.47,34.58,.07,1.3,.37,2.58,1.19,3.65,.1,.1,.21,.2,.32,.28,1.27-.32,2.63-.19,3.95-.19Z"/>
  <path class="c" d="M228.36,293.74c-.82-1.08-1.12-2.35-1.19-3.65-.64-11.54-1.5-23.06-2.47-34.58-.11-1.29-.1-2.62,.83-3.71,.07-.06,.14-.11,.2-.16-.73-.17-1.43-.48-2.07-1.07-.44,1.14-.2,2.31-.12,3.46,.53,7.88,.95,15.77,1.67,23.63,.53,5.8,.38,11.66,1.46,17.41h0c.63-.55,1.31-.86,2.01-1.04-.11-.09-.21-.18-.32-.28Z"/>
  <path class="c" d="M225.74,251.63c1.25,.29,2.59,.13,3.88,.13,15.89,.04,31.79,0,47.68,.04,4.82,.01,5.13,.33,5.15,5.06,.03,10.41,.02,20.82,0,31.22,0,5.57-.14,5.71-5.66,5.72-14.72,.02-29.44-.01-44.16,.02-1.32,0-2.68-.12-3.95,.19,1.46,1.18,3.25,.7,4.89,.7,16.51,0,33.02-.01,49.52-.03,.57-.4,.6-1.25,.6-3.1,.02-12.61,.03-25.22,0-37.83,0-1.72-.03-2.48-.57-2.83-17.33-.03-34.65-.06-51.98-.05-1.82,0-3.77-.5-5.41,.75Z"/>
  <path class="c" d="M231.14,250.88c17.33,0,34.65,.02,51.98,.05-.42-.27-1.15-.3-2.44-.34-.91-.03-1.82,0-2.73,0-18.1-.01-36.19-.02-54.29-.03,.64,.59,1.34,.91,2.07,1.07,1.63-1.24,3.58-.75,5.41-.75Z"/>
  <path class="c" d="M280.17,295.05c1.58,0,2.44-.02,2.92-.35-16.51,.02-33.02,.04-49.52,.03-1.64,0-3.43,.47-4.89-.7-.71,.18-1.39,.49-2.01,1.04,17.84,0,35.67,0,53.51-.01Z"/>
</svg>