<?xml version="1.0" encoding="UTF-8"?>
<svg id="a" data-name="Capa 1" xmlns="http://www.w3.org/2000/svg" viewBox="0 0 566.93 566.93">
  <defs>
    <style>
      .b {
        fill: #fff;
      }

      .c {
        fill: #ffde24;
      }

      .d {
        fill: #e9ca32;
      }
    </style>
  </defs>
  <path class="d" d="M457.88,130.19c-116.53,0-233.05,0-349.58,.02-1.27,0-2.58-.29-3.79,.28-.47,.77-.19,1.54-.13,2.28,.85,10.43,1.71,20.87,2.59,31.3,1.07,12.62,2.15,25.24,3.23,37.86,.54,6.31,1.07,12.62,1.62,18.93,.93,10.55,1.9,21.1,2.82,31.65,.63,7.22,1.18,14.44,1.81,21.65,.94,10.81,1.92,21.62,2.87,32.43,.65,7.34,1.26,14.68,1.9,22.02,.9,10.3,1.85,20.6,2.73,30.9,.66,7.73,1.22,15.46,1.89,23.18,.94,10.95,1.95,21.89,2.91,32.83,.61,6.95,1.14,13.91,1.74,20.86,.93,10.68,1.89,21.37,2.85,32.05,.71,7.85,1.54,15.69,2.12,23.56,.15,1.99,1.09,2.62,2.71,3.06,5.85,1.61,11.69,3.27,17.54,4.91,41.29,11.53,82.59,23.05,123.87,34.64,2.57,.72,4.91,.83,7.51,.1,45.62-12.85,91.26-25.62,136.9-38.39,2.35-.66,5.46-.57,6.8-2.33,1.43-1.88,1.03-4.92,1.24-7.49,.6-7.61,1.21-15.21,1.88-22.81,1.15-13.13,2.39-26.25,3.52-39.38,.89-10.31,1.66-20.62,2.54-30.93,1-11.71,2.05-23.42,3.07-35.14,.59-6.82,1.16-13.65,1.76-20.48,.96-11.07,1.94-22.15,2.9-33.22,.59-6.82,1.13-13.65,1.73-20.47,.96-10.95,1.96-21.89,2.92-32.84,.59-6.82,1.1-13.65,1.69-20.47,.98-11.33,2-22.66,2.99-33.99,.84-9.66,1.63-19.32,2.48-28.97,.96-10.94,2.07-21.87,2.89-32.83,.37-4.89,1.41-4.79-4.51-4.79Zm-193.05,325.35c-33.42-9.01-66.81-18.13-100.21-27.22-3.21-.87-3.27-.88-3.27-3.7-.02-12.04,0-24.08,0-36.12,0-.51,.09-1.02,.16-1.84,2.41-.24,4.32,.7,6.29,1.23,19.58,5.28,39.15,10.59,58.72,15.9,.75,.2,1.48,.47,2.24,.61,.93,.18,1.5-.26,1.55-1.21,.06-1.16,.06-2.33,.06-3.49,0-63.18,0-126.36,0-189.54,0-5.98-.52-5.22,5.13-5.24,10.11-.03,20.22-.02,30.34,0,3.73,0,3.75,.03,3.75,3.86,0,25.25,0,50.49,0,75.74,0,55.8,0,111.6,.01,167.4,0,6.13-.26,4.84-4.78,3.62ZM426.76,166.01c-.48,3.31-.45,6.68-.7,10-.32,4.35-.85,8.72-1.15,13.08-.29,4.2-.4,8.45-1.21,12.65-.6,3.13-.64,6.42-.8,9.59-.21,4.25-.68,8.5-1.15,12.69-.48,4.33-.19,8.73-1.21,13.05-.68,2.84-.56,5.9-.72,8.82-.24,4.37-.77,8.74-1.16,13.08-.37,4.2-.39,8.45-1.17,12.65-.68,3.64-.39,7.42-.91,11.15-.7,4.95-1.02,9.96-1.47,14.94-.35,3.83-.6,7.69-.95,11.54-.47,5.11-.61,10.25-1.42,15.34-.48,3.04-.5,6.17-.7,9.22-.28,4.24-.66,8.51-1.18,12.68-.54,4.34-.16,8.73-1.17,13.05-.72,3.1-.57,6.41-.79,9.59-.31,4.49-.75,9-1.17,13.46-.37,3.94-.24,7.95-1.15,11.88-.72,3.1-.69,6.42-.81,9.59-.27,7.48-1.34,14.87-1.92,22.3-.56,7.15-1.17,14.33-1.95,21.48-.45,4.19-1.03,8.42-1.06,12.69-.02,3.19-.93,6.36-.72,9.61,.14,2.19-1.56,2.84-3.19,3.32-3.83,1.13-7.7,2.16-11.55,3.2-18.66,5.05-37.32,10.11-55.99,15.13-14.31,3.85-28.64,7.65-42.97,11.43-2.78,.73-2.84,.62-2.94-2.11-.04-1.03,0-2.07,0-3.11,0-55.01,0-110.01,0-165.02s0-110.53,0-165.79c0-5.69-.4-5.14,5.31-5.14,44.45,0,88.9,0,133.36,0,.39,0,.78,0,1.17,0,4.08,.03,4,.02,3.43,3.97Z"/>
  <path d="M322.76,81.04c-12.82,0-25.65,0-38.47,.01-2.81,0-2.86,.06-2.88,2.7-.04,4.01-.03,8.02,0,12.03,.02,2.79,.05,2.86,2.74,2.87,19.3,.02,38.6-.02,57.9,.05,2.13,0,2.55-.81,2.54-2.74-.08-11.9-.03-23.8-.05-35.71,0-2.93-.06-2.97-2.98-2.98-12.69-.02-25.39,0-38.08-.02-5.03,0-4.23,.51-4.28-4.35-.04-3.76-.33-3.47,3.62-3.47,12.57,0,25.13,.01,37.7-.02,1.27,0,2.58,.32,4.04-.44,0-4.8,.03-9.69-.01-14.58-.02-2.62-.08-2.67-2.94-2.67-19.04-.02-38.08-.02-57.13,0-3,0-3.05,.05-3.06,2.92-.02,11.77-.02,23.54,0,35.32,0,3.01,.05,3.04,3.34,3.05,12.57,.02,25.13,0,37.7,0,.91,0,1.81,.03,2.72,0,1.34-.04,1.85,.62,1.76,1.91-.05,.64,0,1.29,0,1.94-.04,4.54,.51,4.16-4.16,4.16Z"/>
  <path d="M227.11,98.65c13.85,.02,27.7,.02,41.54,0,2.97,0,3.01-.06,3.02-2.95,.02-10.08,0-20.16,0-30.24,0-3.1,0-6.2,0-9.31,0-7.37,0-14.73,0-22.1,0-1.23,.02-2.34-1.73-2.33-4.79,.04-9.58,.02-14.37,0-1.09,0-1.71,.38-1.69,1.55,.02,.9,0,1.81,0,2.71,0,13.96,0,27.92,0,41.88,0,3.13-.04,3.16-3.19,3.17-7.77,.02-15.53,0-23.3,.01-3.01,0-3.04,.04-3.06,2.83-.03,4.01-.03,8.01,0,12.02,.02,2.69,.05,2.74,2.76,2.75Z"/>
  <path class="c" d="M423.33,162.04c-.39,0-.78,0-1.17,0-44.45,0-88.9,0-133.36,0-5.71,0-5.31-.54-5.31,5.14,0,55.26,0,110.53,0,165.79s0,110.01,0,165.02c0,1.04-.03,2.07,0,3.11,.11,2.73,.16,2.84,2.94,2.11,14.33-3.78,28.65-7.58,42.97-11.43,18.67-5.02,37.33-10.08,55.99-15.13,3.86-1.04,7.72-2.07,11.55-3.2,1.63-.48,3.33-1.13,3.19-3.32-.2-3.25,.7-6.42,.72-9.61,.03-4.27,.61-8.51,1.06-12.69,.77-7.15,1.39-14.33,1.95-21.48,.58-7.43,1.65-14.83,1.92-22.3,.11-3.16,.09-6.49,.81-9.59,.91-3.94,.78-7.95,1.15-11.88,.42-4.46,.86-8.97,1.17-13.46,.22-3.19,.07-6.49,.79-9.59,1.01-4.32,.63-8.71,1.17-13.05,.52-4.17,.9-8.44,1.18-12.68,.2-3.05,.22-6.18,.7-9.22,.81-5.09,.95-10.23,1.42-15.34,.35-3.84,.6-7.7,.95-11.54,.45-4.98,.77-10,1.47-14.94,.53-3.73,.24-7.51,.91-11.15,.78-4.2,.79-8.45,1.17-12.65,.39-4.34,.91-8.7,1.16-13.08,.16-2.92,.04-5.98,.72-8.82,1.03-4.31,.74-8.71,1.21-13.05,.46-4.19,.93-8.44,1.15-12.69,.16-3.18,.2-6.46,.8-9.59,.81-4.19,.92-8.45,1.21-12.65,.3-4.36,.82-8.72,1.15-13.08,.25-3.32,.22-6.69,.7-10,.57-3.95,.65-3.94-3.43-3.97Zm-13.96,47.34c-.87,10.95-2.03,21.87-2.97,32.82-.15,1.7-.79,2.23-2.39,2.19-2.85-.07-5.7-.02-8.55-.02-17.89,0-35.78,0-53.67,0-.65,0-1.3,0-1.94,0-3.23,.05-3.27,.05-3.29,3.15-.03,5.44,0,10.87,0,16.31v43.89c0,.78-.02,1.55,0,2.33,.09,2.89,.17,2.99,3.2,2.69,2.06-.2,4.1-.52,6.15-.84,14.56-2.25,29.11-4.51,43.67-6.75,3.19-.49,6.39-.96,9.58-1.44,2.33-.35,2.59-.16,2.39,2.09-.54,6.05-1.14,12.1-1.72,18.15-.93,9.78-1.85,19.56-2.78,29.34-1.21,12.74-2.44,25.47-3.62,38.21-.93,10.04-1.77,20.08-2.67,30.12-.16,1.8-.41,3.59-.59,5.39-.42,4.23-.41,4.25-4.67,5.43-28.39,7.84-56.78,15.67-85.16,23.52-.87,.24-1.69,.68-2.62,.26-.61-1.08-.36-2.27-.37-3.41-.02-11.26-.04-22.53,0-33.79,.01-4.11-.45-3.32,3.34-4.38,17.03-4.8,34.08-9.52,51.18-14.05,2.95-.78,4.25-2.01,4.52-5.05,.72-8.24,1.69-16.46,2.58-24.69,.67-6.16,1.36-12.32,2.04-18.48,.07-.64,.06-1.29,.15-1.93,.22-1.64-.52-2.02-2.03-1.77-6.63,1.09-13.27,2.13-19.9,3.18-10.97,1.73-21.95,3.46-32.92,5.19-2.8,.44-5.61,.87-8.35,1.29-.92-1.12-.59-2.33-.59-3.46-.02-48.67-.01-97.35-.01-146.02,0-.65,.04-1.3,0-1.94-.08-1.52,.69-2.08,2.13-2,.78,.04,1.56,0,2.33,0,34.48,0,68.96,0,103.44,0,4.78,0,4.5-.4,4.11,4.48Z"/>
  <path class="b" d="M269.59,284.51c0-25.25,0-50.49,0-75.74,0-3.84-.02-3.86-3.75-3.86-10.11-.01-20.22-.03-30.34,0-5.65,.02-5.13-.74-5.13,5.24,0,63.18,0,126.36,0,189.54,0,1.16,0,2.33-.06,3.49-.05,.96-.62,1.39-1.55,1.21-.76-.14-1.49-.41-2.24-.61-19.57-5.3-39.14-10.62-58.72-15.9-1.97-.53-3.88-1.48-6.29-1.23-.07,.82-.16,1.33-.16,1.84,0,12.04-.03,24.08,0,36.12,0,2.82,.06,2.83,3.27,3.7,33.4,9.09,66.79,18.21,100.21,27.22,4.52,1.22,4.78,2.51,4.78-3.62-.02-55.8-.01-111.6-.01-167.4Z"/>
  <path class="b" d="M405.26,204.9c-34.48,0-68.96,0-103.44,0-.78,0-1.56,.04-2.33,0-1.44-.08-2.21,.48-2.13,2,.03,.65,0,1.29,0,1.94,0,48.67,0,97.35,.01,146.02,0,1.13-.32,2.34,.59,3.46,2.75-.42,5.55-.85,8.35-1.29,10.97-1.73,21.95-3.45,32.92-5.19,6.64-1.05,13.27-2.09,19.9-3.18,1.51-.25,2.25,.13,2.03,1.77-.09,.64-.08,1.29-.15,1.93-.68,6.16-1.37,12.32-2.04,18.48-.89,8.23-1.86,16.45-2.58,24.69-.26,3.04-1.57,4.27-4.52,5.05-17.1,4.53-34.15,9.26-51.18,14.05-3.79,1.07-3.33,.28-3.34,4.38-.04,11.26-.02,22.53,0,33.79,0,1.14-.25,2.33,.37,3.41,.94,.42,1.76-.02,2.62-.26,28.38-7.85,56.77-15.68,85.16-23.52,4.26-1.18,4.25-1.19,4.67-5.43,.18-1.8,.43-3.59,.59-5.39,.9-10.04,1.74-20.09,2.67-30.12,1.17-12.74,2.41-25.47,3.62-38.21,.93-9.78,1.85-19.56,2.78-29.34,.57-6.05,1.18-12.1,1.72-18.15,.2-2.25-.07-2.44-2.39-2.09-3.19,.47-6.39,.94-9.58,1.44-14.56,2.25-29.11,4.51-43.67,6.75-2.04,.32-4.09,.63-6.15,.84-3.03,.3-3.12,.19-3.2-2.69-.02-.78,0-1.55,0-2.33v-43.89c0-5.44-.02-10.87,0-16.31,.02-3.1,.06-3.1,3.29-3.15,.65,0,1.3,0,1.94,0,17.89,0,35.78,0,53.67,0,2.85,0,5.7-.05,8.55,.02,1.59,.04,2.24-.49,2.39-2.19,.94-10.94,2.1-21.87,2.97-32.82,.39-4.88,.67-4.48-4.11-4.48Z"/>
</svg>