<?xml version="1.0" encoding="UTF-8"?>
<svg id="a" data-name="Capa 1" xmlns="http://www.w3.org/2000/svg" viewBox="0 0 566.93 566.93">
  <defs>
    <style>
      .b {
        fill: #7fbb01;
      }
    </style>
  </defs>
  <path class="b" d="M291.28,534.69c9.1-2.1,16.51-7.63,24.35-12.18,55.88-32.48,111.68-65.07,167.63-97.43,14.57-8.43,21.74-20.7,21.69-37.8-.22-69.2-.24-138.4,.02-207.6,.06-16.72-6.74-28.86-20.92-37.15-52.16-30.48-104.35-60.91-156.62-91.19-8.9-5.16-17.57-10.74-26.78-15.36-11.31-5.68-22.86-5.9-34.08-.07-16.63,8.63-32.56,18.51-48.74,27.95-44.31,25.85-88.62,51.71-133.01,77.42-15.67,9.08-23.02,21.81-22.91,40.17,.41,68.69,.26,137.39,.1,206.08-.04,16.61,6.74,28.94,21.05,37.12,15.67,8.96,31.04,18.47,46.91,27.08,16.43,8.91,33.88,13.11,52.7,9.93,21.3-3.6,35.83-17.87,39.57-39.24,1.55-8.82,1.97-17.8,2-26.7,.19-63.63,.1-127.26,.1-190.89,0-13.77-.31-14.06-14.19-14.05-3.88,0-7.76-.02-11.64,.03-3.71,.05-5.61,1.86-5.73,5.57-.07,2.03-.06,4.05-.06,6.08,0,66.5-.02,133,.03,199.5,0,5.48-.57,10.75-3.12,15.71-4.9,9.53-15.52,14.94-26.15,13.63-8.6-1.06-16.15-4.54-23.48-8.88-13.94-8.26-27.87-16.53-42.01-24.44-4.13-2.31-5.35-5.59-5.33-10.01,.09-17.38,.04-34.77,.04-52.15,0-51.48,.1-102.96-.12-154.44-.03-6.76,2.25-10.82,8.11-14.18,42.46-24.32,84.65-49.13,126.99-73.67,16.5-9.56,32.91-19.27,49.44-28.77,4.47-2.57,8.34-2.54,12.78,.03,30.54,17.65,60.96,35.48,91.47,53.17,28.61,16.59,57.15,33.31,85.81,49.82,4.88,2.81,7.18,6.31,7.17,12.16-.14,69.03-.13,138.06-.01,207.1,0,5.53-1.82,9.07-6.68,11.86-45.2,26-90.2,52.34-135.28,78.55-13.28,7.72-26.74,15.13-39.75,23.28-6.37,3.98-11.81,4.14-18.2,.06-12.23-7.8-24.89-14.93-37.24-22.56-4.35-2.69-8.1-3.08-12.64-.3-6.62,4.05-13.79,7.11-21.18,9.59-1.26,.42-2.86,.74-3.14,2.23-.34,1.76,1.22,2.63,2.42,3.52,2.72,2.02,5.81,3.43,8.71,5.16,17.26,10.27,34.34,20.83,51.74,30.87,3.52,2.03,7.08,3.91,11.04,4.96,1.35,.36,3.26,.28,3.26,2.51h12.15c-.19-1.33,.77-1.84,1.74-2.06Z"/>
  <path class="b" d="M485.27,425.42c14.07-8.18,21.02-20.32,21.01-36.62-.05-70.22-.05-140.43,0-210.65,.01-16.09-6.71-28.25-20.6-36.34-60.42-35.21-120.86-70.39-181.3-105.56-13.88-8.08-27.89-8.1-41.75-.04-60.46,35.15-120.88,70.35-181.32,105.54-13.91,8.1-20.67,20.21-20.66,36.3,.04,70.22,.05,140.43,0,210.65-.01,16.28,6.78,28.51,20.91,36.67,15.02,8.69,29.93,17.59,45.05,26.1,15.55,8.74,31.96,13.81,50.23,12.49,21.32-1.54,38.06-13.41,44.69-33.05,2.45-7.25,3.56-14.75,3.57-22.38,.07-70.38,.12-140.77,.17-211.15,0-.67-.05-1.35-.08-2.02-.17-4.13-2.27-6.08-6.44-6.02-6.24,.09-12.49,.01-18.73,.02-7.76,0-8.81,1.02-8.81,8.65,0,46.08,0,92.16,0,138.24,0,22.96,.05,45.91-.02,68.87-.04,13.57-8.41,23.11-21.82,24.7-8.71,1.04-16.66-1.77-24.09-6.05-15.18-8.75-30.21-17.77-45.5-26.34-4.41-2.47-6.06-5.38-6.05-10.42,.14-69.03,.14-138.07,0-207.1-.01-5.04,1.68-7.96,6.02-10.47,59.5-34.45,118.92-69.02,178.3-103.67,3.81-2.22,6.83-2.35,10.71-.09,59.67,34.83,119.4,69.55,179.17,104.19,3.64,2.11,5.22,4.56,5.22,8.84-.1,69.88-.1,139.76,0,209.64,0,4.04-1.39,6.52-4.86,8.54-59.91,34.75-119.78,69.56-179.59,104.48-3.88,2.26-6.96,2.14-10.71-.15-14.08-8.63-28.32-16.99-42.47-25.52-2.41-1.45-4.8-2.81-7.52-1.19-8.86,5.3-18.24,9.4-28.01,12.71-3.57,1.21-3.36,3.38-.69,5.51,1.31,1.05,2.8,1.88,4.24,2.74,16.49,9.85,33.02,19.65,49.48,29.55,7.78,4.68,15.43,9.58,24.39,11.77,0-2.23-1.92-2.15-3.26-2.51-3.97-1.05-7.52-2.92-11.04-4.96-17.39-10.04-34.48-20.6-51.74-30.87-2.9-1.73-5.98-3.14-8.71-5.16-1.2-.89-2.76-1.75-2.42-3.52,.29-1.5,1.89-1.81,3.14-2.23,7.39-2.48,14.55-5.53,21.18-9.59,4.54-2.78,8.29-2.39,12.64,.3,12.35,7.63,25,14.76,37.24,22.56,6.4,4.08,11.84,3.92,18.2-.06,13.01-8.14,26.48-15.56,39.75-23.28,45.08-26.21,90.08-52.55,135.28-78.55,4.86-2.79,6.69-6.34,6.68-11.86-.12-69.03-.13-138.06,.01-207.1,.01-5.85-2.3-9.35-7.17-12.16-28.66-16.51-57.2-33.23-85.81-49.82-30.51-17.69-60.94-35.52-91.47-53.17-4.44-2.56-8.31-2.59-12.78-.03-16.54,9.5-32.95,19.21-49.44,28.77-42.34,24.54-84.52,49.35-126.99,73.67-5.86,3.36-8.14,7.42-8.11,14.18,.22,51.48,.12,102.96,.12,154.44,0,17.38,.05,34.77-.04,52.15-.02,4.43,1.2,7.71,5.33,10.01,14.14,7.9,28.07,16.18,42.01,24.44,7.33,4.34,14.88,7.82,23.48,8.88,10.63,1.31,21.25-4.1,26.15-13.63,2.55-4.96,3.13-10.23,3.12-15.71-.04-66.5-.03-133-.03-199.5,0-2.03,0-4.05,.06-6.08,.12-3.72,2.02-5.53,5.73-5.57,3.88-.05,7.76-.03,11.64-.03,13.88,0,14.18,.28,14.19,14.05,0,63.63,.09,127.26-.1,190.89-.03,8.9-.45,17.87-2,26.7-3.75,21.37-18.27,35.63-39.57,39.24-18.82,3.18-36.27-1.02-52.7-9.93-15.87-8.6-31.24-18.11-46.91-27.08-14.3-8.18-21.09-20.51-21.05-37.12,.16-68.69,.31-137.39-.1-206.08-.11-18.37,7.24-31.1,22.91-40.17,44.39-25.71,88.7-51.57,133.01-77.42,16.18-9.44,32.11-19.32,48.74-27.95,11.22-5.82,22.77-5.6,34.08,.07,9.21,4.62,17.88,10.2,26.78,15.36,52.27,30.28,104.46,60.71,156.62,91.19,14.18,8.29,20.99,20.43,20.92,37.15-.26,69.2-.24,138.4-.02,207.6,.05,17.1-7.12,29.37-21.69,37.8-55.94,32.36-111.75,64.96-167.63,97.43-7.84,4.56-15.25,10.09-24.35,12.18-.97,.22-1.93,.73-1.74,2.06,5.07-1.73,10.16-3.28,14.86-6.03,60.26-35.15,120.56-70.24,180.86-105.31Z"/>
  <path class="b" d="M282.43,379.79c18.28,7.43,37.48,9.35,56.99,9.05,4.72,0,9.47,.29,14.16-.05,19-1.39,37.52-4.8,53.68-15.71,20.95-14.16,27.39-34.53,23.99-58.67-3.02-21.46-17.88-31.71-36.78-37.89-1.28-.42-2.58-.77-3.87-1.15-15.91-4.65-32.31-6.65-48.64-9.03-15.32-2.24-30.81-3.76-45.47-9.15-9.17-3.37-12.15-8.98-10.65-18.6,1.92-12.39,10.95-17.17,21.62-19.69,14.78-3.49,29.79-2.89,44.79-1.55,20.2,1.8,33.85,11.25,37.92,32.12,.68,3.47,2.99,4.95,6.6,4.87,7.08-.14,14.17,.01,21.26-.06,5.27-.06,6.99-2,6.57-7.13-2.45-29.91-17.96-49.32-46.79-57.86-21.34-6.33-43.17-6.96-65.14-4.41-13.86,1.61-27.13,5.29-38.97,12.97-18.68,12.12-26.11,29.77-24.44,51.52,1.66,21.58,14.17,34.54,33.84,41.55,2.85,1.02,5.73,1.97,8.64,2.79,19.42,5.51,39.57,6.18,59.4,9.05,10.68,1.55,21.33,3.27,31.41,7.29,5.24,2.09,10.19,4.78,12.12,10.64,3.14,9.53-.84,21.13-9.11,26.95-4.06,2.86-8.59,4.67-13.38,5.75-19.17,4.34-38.49,3.89-57.84,1.54-20.73-2.52-34.57-12.44-37.03-34.6-.43-3.91-3.28-5.17-6.91-5.15-6.75,.03-13.5-.06-20.25,.02-5.72,.07-7.3,1.84-7.26,7.77,.14,26.21,14.26,46.57,39.54,56.84Z"/>
</svg>