<?xml version="1.0" encoding="UTF-8"?>
<svg id="a" data-name="Capa 1" xmlns="http://www.w3.org/2000/svg" viewBox="0 0 566.93 566.93">
  <defs>
    <style>
      .b {
        fill: #00cbfe;
      }
    </style>
  </defs>
  <path class="b" d="M540.54,233.92c-5.9-6.06-12.36-11.43-19.33-16.22-20.88-14.34-44.04-23.72-68.03-31.21-3.6-1.13-4.7-2.16-3.67-6.15,4.33-16.72,7.07-33.75,8.2-50.99,1.31-19.96,.46-39.74-6.6-58.74-11.35-30.51-35.07-44.24-67.21-39.16-17.57,2.78-33.21,10.37-48.15,19.55-18.03,11.08-34.3,24.44-49.3,39.32-2.7,2.68-4.45,2.75-7.2,.07-5.75-5.6-11.66-11.05-17.82-16.18-21.4-17.84-44.1-33.49-71.54-40.69-34.62-9.09-62.36,4.91-74.39,37.43-4.07,11-6.06,22.43-6.65,34.09-1.27,24.84,1.76,49.29,7.83,73.32,1.45,5.75,.04,7.6-5.28,9-6.75,1.78-13.34,4.31-19.85,6.87-24.05,9.45-46.86,21-65.19,39.82-25.62,26.29-26.72,57.77-2.99,85.71,8.13,9.58,17.97,17.18,28.59,23.76,18.68,11.58,38.79,19.98,59.72,26.49,8.37,2.61,8.38,2.51,6.32,10.6-5.76,22.61-9.48,45.52-9.88,72.24,.21,12.35,1.55,27.87,6.84,42.84,9.53,26.98,31.03,42.07,58.66,40.6,14.21-.76,27.5-5.23,40.21-11.43,24.61-12.02,45.73-28.88,65.28-47.78,3.52-3.4,5.33-2.9,8.51,.2,6.61,6.43,13.45,12.67,20.62,18.45,21.68,17.49,44.58,32.77,72.39,38.97,31.52,7.02,57.1-6.19,69.44-36.01,5.69-13.75,7.65-28.24,7.92-42.93,.48-26.25-3.79-51.93-10.57-77.21-1.14-4.24-.72-6.28,4.03-7.5,7.35-1.89,14.59-4.36,21.66-7.13,24.78-9.71,48.5-21.26,67.45-40.68,26.8-27.45,26.8-61.79,.02-89.29Zm-238.24-124.97c21.05-20,43.24-38.37,70.65-49.15,9.35-3.68,19.03-6.19,29.35-4.46,12.08,2.02,19.59,9.43,24.33,20.14,5.81,13.14,6.81,27.11,6.66,42.6,.14,18.42-3.29,37.73-7.66,56.92-.64,2.82-1.66,3.39-4.53,2.74-24.06-5.45-48.35-9.51-72.95-11.59-2.78-.24-4.72-1.41-6.4-3.75-11.91-16.67-24.88-32.48-38.57-47.71-1.51-1.68-3.81-2.95-.88-5.74Zm-135.15,203.26c9.43,17.62,18.73,34.5,29.54,51.7-14.78-2.05-28.17-4.45-41.48-7.32-3.59-.77-4.41-1.74-3.08-5.44,4.61-12.81,9.21-25.61,15.02-38.94Zm-2.33-62.58c-5.77-13.88-10.84-28-15.42-42.32-1.14-3.57-1.29-5.15,3.15-6.11,16.43-3.57,32.88-6.83,50.51-8.74-12.91,20.21-24.86,40.09-35.36,60.73-2.43-.31-2.34-2.28-2.87-3.56Zm16.73,37.58c-1.29-2.62-1.2-4.65,.06-7.22,14.85-30.28,31.76-59.33,50.77-87.19,2.3-3.37,5.05-4.16,8.55-4.25,14.23-.38,28.43-1.85,42.69-1.28,14.06-.55,28.06,.98,42.09,1.25,3.97,.08,6.49,1.6,8.79,4.98,18.53,27.21,35.08,55.55,49.66,85.06,1.56,3.15,1.72,5.64,.09,8.91-13.05,26.22-27.44,51.64-43.63,76.05-1.96,2.96-4.02,4.2-7.64,4.49-33.67,2.68-67.31,2.52-100.96-.12-2.9-.23-4.7-1.09-6.32-3.54-16.41-24.75-31.03-50.52-44.16-77.14Zm217.77,24.82c6.02,13.97,10.84,27.08,15.43,40.29,.87,2.49,.26,3.39-2.25,3.97-13.79,3.22-27.71,5.63-42.67,7.62,10.49-17.11,20.07-33.71,29.49-51.88Zm-.33-57.54c-11.35-21.82-23.3-41.94-36.45-62.29,18.28,2.05,35.33,5.25,52.26,9.15,1.92,.44,3.47,.56,2.61,3.31-5.18,16.52-10.99,32.8-18.43,49.83Zm-118.43-123.01c1.33-1.56,2.5-3.25,4.68-.76,8.95,10.21,17.87,20.44,26.77,32.33h-56.86c1.23-3.81,4.05-6.33,6.35-9.11,6.26-7.57,12.68-14.99,19.05-22.46Zm-144.8-44.77c1.59-7.28,4.44-14.14,9.09-20.12,6.41-8.24,15.14-11.46,25.26-11.81,11.2,.44,21.72,3.68,31.7,8.52,23.17,11.24,43.03,27.08,61.43,44.91,2.34,2.27,2.1,3.53,.05,5.76-14.24,15.55-27.51,31.91-39.76,49.07-1.76,2.46-4,3.11-6.65,3.35-24.2,2.14-48.12,6.02-71.77,11.53-2.2,.51-3.77,1.02-4.45-1.9-6.8-29.49-11.49-59.11-4.9-89.3Zm-7.61,258.76c-.85,2.57-1.8,3.63-4.69,2.74-26.04-7.95-51.05-18.01-72.42-35.42-3.71-3.03-7.16-6.47-10.3-10.09-13.59-15.73-13.4-33.18,.35-48.8,13.32-15.13,30.56-24.48,48.52-32.67,10.03-4.57,20.45-8.19,30.99-11.42,.76-.23,1.5-.55,2.22-.81,2.03-.23,2.29,1.36,2.68,2.64,7.21,23.61,16.23,46.52,26.5,68.94,.95,2.07,.44,3.81-.43,5.7-8.84,19.32-16.73,39.03-23.42,59.2Zm135.31,112.67c-20.1,18.91-41.21,36.35-66.87,47.37-7.77,3.34-15.79,5.78-24.33,6.08-15.7,.55-25.88-5.64-32.38-20.01-6-13.27-7.15-27.41-7.07-41.74,.08-22.82,4.41-45,9.88-67.03,.7-2.81,1.74-3.83,4.94-3.11,20.92,4.72,42.06,8.26,63.38,10.58,2.73,.3,4.24,1.61,5.7,3.69,14.24,20.42,29.63,39.93,46.38,58.36,1.77,1.94,3.03,3.3,.38,5.8Zm21.38-22.17c-1.26,1.38-2.15,2.04-3.75,.28-12.23-13.46-23.77-27.47-35.25-43.19,25,1.51,48.89,1.72,74.15-.04-11.63,15.72-23.02,29.63-35.15,42.95Zm144.56,48.9c-7.42,23.13-22.84,31.76-46.38,25.74-18.18-4.65-33.81-14.35-48.81-25.2-11.07-8-21.2-17.11-31.14-26.46-2.38-2.24-2.71-3.62-.3-6.22,17.09-18.38,32.48-38.14,46.87-58.68,1.64-2.34,3.49-3.43,6.33-3.76,20.89-2.48,41.69-5.52,62.17-10.41,3.29-.78,4.96-.07,5.88,3.57,5.62,22.21,9.51,44.65,9.96,68.29-.32,10.75-1.04,22.12-4.58,33.13Zm96.6-181.87c-14.21,16.32-32.93,25.86-52.23,34.45-10.06,4.48-20.59,7.74-31.09,11.04-2.79,.88-3.94,.23-4.77-2.38-6.51-20.43-14.68-40.21-23.53-59.72-.93-2.05-.77-3.73,.11-5.7,10.14-22.45,19.23-45.3,26.53-68.84,.73-2.35,1.43-3.35,4.14-2.49,24.55,7.78,48.34,17.19,68.79,33.3,10.18,8.01,19.19,17.14,21.83,30.64,.34,1.76,.51,3.55,.68,4.81-.41,10-4.38,17.91-10.47,24.89Z"/>
  <path class="b" d="M283.74,343.71c32.85-.08,60.04-27.44,59.98-60.34-.06-32.98-27.21-60.08-60.19-60.09-33.02-.01-60.19,27.04-60.27,60-.08,33.21,27.26,60.51,60.48,60.43Z"/>
</svg>